<mxfile host="app.diagrams.net" agent="Mozilla/5.0 (Windows NT 10.0; Win64; x64) AppleWebKit/537.36 (KHTML, like Gecko) Chrome/122.0.0.0 Safari/537.36" version="27.0.6">
  <diagram name="Strona-1" id="eCCwO7J3HlAzGj1amf7a">
    <mxGraphModel dx="583" dy="990" grid="1" gridSize="10" guides="1" tooltips="1" connect="1" arrows="1" fold="1" page="1" pageScale="1" pageWidth="827" pageHeight="1169" math="0" shadow="0">
      <root>
        <mxCell id="0" />
        <mxCell id="1" parent="0" />
        <mxCell id="LbimwJBYZa8Vmd8NOQpc-2" value="wyslane_sms" style="swimlane;fontStyle=0;childLayout=stackLayout;horizontal=1;startSize=36;horizontalStack=0;resizeParent=1;resizeParentMax=0;resizeLast=0;collapsible=1;marginBottom=0;align=center;fontSize=14;swimlaneLine=1;glass=0;aspect=fixed;" vertex="1" parent="1">
          <mxGeometry x="380" y="370" width="249.75" height="144" as="geometry">
            <mxRectangle x="380" y="370" width="120" height="30" as="alternateBounds" />
          </mxGeometry>
        </mxCell>
        <mxCell id="LbimwJBYZa8Vmd8NOQpc-3" value="&lt;b&gt;FK1&amp;nbsp;&lt;/b&gt;id_daty" style="text;strokeColor=none;fillColor=none;spacingLeft=4;spacingRight=4;overflow=hidden;rotatable=0;points=[[0,0.5],[1,0.5]];portConstraint=eastwest;fontSize=12;whiteSpace=wrap;html=1;" vertex="1" parent="LbimwJBYZa8Vmd8NOQpc-2">
          <mxGeometry y="36" width="249.75" height="30" as="geometry" />
        </mxCell>
        <mxCell id="LbimwJBYZa8Vmd8NOQpc-4" value="&lt;b&gt;FK2&lt;/b&gt; id_miejsca" style="text;strokeColor=none;fillColor=none;spacingLeft=4;spacingRight=4;overflow=hidden;rotatable=0;points=[[0,0.5],[1,0.5]];portConstraint=eastwest;fontSize=12;whiteSpace=wrap;html=1;" vertex="1" parent="LbimwJBYZa8Vmd8NOQpc-2">
          <mxGeometry y="66" width="249.75" height="30" as="geometry" />
        </mxCell>
        <mxCell id="LbimwJBYZa8Vmd8NOQpc-6" value="&lt;b&gt;FK3&lt;/b&gt; id_operatora" style="text;strokeColor=none;fillColor=none;spacingLeft=4;spacingRight=4;overflow=hidden;rotatable=0;points=[[0,0.5],[1,0.5]];portConstraint=eastwest;fontSize=12;whiteSpace=wrap;html=1;" vertex="1" parent="LbimwJBYZa8Vmd8NOQpc-2">
          <mxGeometry y="96" width="249.75" height="24" as="geometry" />
        </mxCell>
        <mxCell id="LbimwJBYZa8Vmd8NOQpc-13" value="rozmiar SMS REAL&lt;div&gt;&lt;br&gt;&lt;/div&gt;" style="text;strokeColor=none;fillColor=none;spacingLeft=4;spacingRight=4;overflow=hidden;rotatable=0;points=[[0,0.5],[1,0.5]];portConstraint=eastwest;fontSize=12;whiteSpace=wrap;html=1;" vertex="1" parent="LbimwJBYZa8Vmd8NOQpc-2">
          <mxGeometry y="120" width="249.75" height="24" as="geometry" />
        </mxCell>
        <mxCell id="LbimwJBYZa8Vmd8NOQpc-15" value="miejsce" style="swimlane;fontStyle=0;childLayout=stackLayout;horizontal=1;startSize=36;horizontalStack=0;resizeParent=1;resizeParentMax=0;resizeLast=0;collapsible=1;marginBottom=0;align=center;fontSize=14;swimlaneLine=1;glass=0;aspect=fixed;" vertex="1" parent="1">
          <mxGeometry x="690" y="370" width="249.75" height="120" as="geometry">
            <mxRectangle x="380" y="370" width="120" height="30" as="alternateBounds" />
          </mxGeometry>
        </mxCell>
        <mxCell id="LbimwJBYZa8Vmd8NOQpc-16" value="&lt;b&gt;PK&amp;nbsp;&lt;/b&gt;id_miejsca" style="text;strokeColor=none;fillColor=none;spacingLeft=4;spacingRight=4;overflow=hidden;rotatable=0;points=[[0,0.5],[1,0.5]];portConstraint=eastwest;fontSize=12;whiteSpace=wrap;html=1;" vertex="1" parent="LbimwJBYZa8Vmd8NOQpc-15">
          <mxGeometry y="36" width="249.75" height="30" as="geometry" />
        </mxCell>
        <mxCell id="LbimwJBYZa8Vmd8NOQpc-17" value="&lt;b&gt;FK&lt;/b&gt;&amp;nbsp;id_wojewodztwa" style="text;strokeColor=none;fillColor=none;spacingLeft=4;spacingRight=4;overflow=hidden;rotatable=0;points=[[0,0.5],[1,0.5]];portConstraint=eastwest;fontSize=12;whiteSpace=wrap;html=1;" vertex="1" parent="LbimwJBYZa8Vmd8NOQpc-15">
          <mxGeometry y="66" width="249.75" height="30" as="geometry" />
        </mxCell>
        <mxCell id="LbimwJBYZa8Vmd8NOQpc-18" value="miasto VARCHAR&lt;b&gt;&amp;nbsp;&lt;/b&gt;" style="text;strokeColor=none;fillColor=none;spacingLeft=4;spacingRight=4;overflow=hidden;rotatable=0;points=[[0,0.5],[1,0.5]];portConstraint=eastwest;fontSize=12;whiteSpace=wrap;html=1;" vertex="1" parent="LbimwJBYZa8Vmd8NOQpc-15">
          <mxGeometry y="96" width="249.75" height="24" as="geometry" />
        </mxCell>
        <mxCell id="LbimwJBYZa8Vmd8NOQpc-20" value="wojewodztwo" style="swimlane;fontStyle=0;childLayout=stackLayout;horizontal=1;startSize=36;horizontalStack=0;resizeParent=1;resizeParentMax=0;resizeLast=0;collapsible=1;marginBottom=0;align=center;fontSize=14;swimlaneLine=1;glass=0;aspect=fixed;" vertex="1" parent="1">
          <mxGeometry x="700" y="200" width="249.75" height="120" as="geometry">
            <mxRectangle x="380" y="370" width="120" height="30" as="alternateBounds" />
          </mxGeometry>
        </mxCell>
        <mxCell id="LbimwJBYZa8Vmd8NOQpc-21" value="&lt;b&gt;PK&amp;nbsp;&lt;/b&gt;id_wojewodztwa" style="text;strokeColor=none;fillColor=none;spacingLeft=4;spacingRight=4;overflow=hidden;rotatable=0;points=[[0,0.5],[1,0.5]];portConstraint=eastwest;fontSize=12;whiteSpace=wrap;html=1;" vertex="1" parent="LbimwJBYZa8Vmd8NOQpc-20">
          <mxGeometry y="36" width="249.75" height="30" as="geometry" />
        </mxCell>
        <mxCell id="LbimwJBYZa8Vmd8NOQpc-22" value="&lt;b&gt;FK&lt;/b&gt;&amp;nbsp;id_regionu" style="text;strokeColor=none;fillColor=none;spacingLeft=4;spacingRight=4;overflow=hidden;rotatable=0;points=[[0,0.5],[1,0.5]];portConstraint=eastwest;fontSize=12;whiteSpace=wrap;html=1;" vertex="1" parent="LbimwJBYZa8Vmd8NOQpc-20">
          <mxGeometry y="66" width="249.75" height="30" as="geometry" />
        </mxCell>
        <mxCell id="LbimwJBYZa8Vmd8NOQpc-23" value="wojewodztwo VARCHAR&lt;b&gt;&amp;nbsp;&lt;/b&gt;" style="text;strokeColor=none;fillColor=none;spacingLeft=4;spacingRight=4;overflow=hidden;rotatable=0;points=[[0,0.5],[1,0.5]];portConstraint=eastwest;fontSize=12;whiteSpace=wrap;html=1;" vertex="1" parent="LbimwJBYZa8Vmd8NOQpc-20">
          <mxGeometry y="96" width="249.75" height="24" as="geometry" />
        </mxCell>
        <mxCell id="LbimwJBYZa8Vmd8NOQpc-24" value="region" style="swimlane;fontStyle=0;childLayout=stackLayout;horizontal=1;startSize=36;horizontalStack=0;resizeParent=1;resizeParentMax=0;resizeLast=0;collapsible=1;marginBottom=0;align=center;fontSize=14;swimlaneLine=1;glass=0;aspect=fixed;" vertex="1" parent="1">
          <mxGeometry x="1010" y="230" width="249.75" height="90" as="geometry">
            <mxRectangle x="380" y="370" width="120" height="30" as="alternateBounds" />
          </mxGeometry>
        </mxCell>
        <mxCell id="LbimwJBYZa8Vmd8NOQpc-25" value="&lt;b&gt;PK&amp;nbsp;&lt;/b&gt;id_regionu" style="text;strokeColor=none;fillColor=none;spacingLeft=4;spacingRight=4;overflow=hidden;rotatable=0;points=[[0,0.5],[1,0.5]];portConstraint=eastwest;fontSize=12;whiteSpace=wrap;html=1;" vertex="1" parent="LbimwJBYZa8Vmd8NOQpc-24">
          <mxGeometry y="36" width="249.75" height="30" as="geometry" />
        </mxCell>
        <mxCell id="LbimwJBYZa8Vmd8NOQpc-27" value="region VARCHAR&lt;b&gt;&amp;nbsp;&lt;/b&gt;" style="text;strokeColor=none;fillColor=none;spacingLeft=4;spacingRight=4;overflow=hidden;rotatable=0;points=[[0,0.5],[1,0.5]];portConstraint=eastwest;fontSize=12;whiteSpace=wrap;html=1;" vertex="1" parent="LbimwJBYZa8Vmd8NOQpc-24">
          <mxGeometry y="66" width="249.75" height="24" as="geometry" />
        </mxCell>
        <mxCell id="LbimwJBYZa8Vmd8NOQpc-28" style="edgeStyle=entityRelationEdgeStyle;rounded=0;orthogonalLoop=1;jettySize=auto;html=1;entryX=1;entryY=0.5;entryDx=0;entryDy=0;endArrow=ERmany;endFill=0;exitX=0;exitY=0.5;exitDx=0;exitDy=0;" edge="1" parent="1" source="LbimwJBYZa8Vmd8NOQpc-17" target="LbimwJBYZa8Vmd8NOQpc-4">
          <mxGeometry relative="1" as="geometry">
            <mxPoint x="600" y="590" as="sourcePoint" />
            <mxPoint x="679.251" y="658.01" as="targetPoint" />
          </mxGeometry>
        </mxCell>
        <mxCell id="LbimwJBYZa8Vmd8NOQpc-29" style="edgeStyle=entityRelationEdgeStyle;rounded=0;orthogonalLoop=1;jettySize=auto;html=1;endArrow=ERmany;endFill=0;entryX=0.5;entryY=0;entryDx=0;entryDy=0;exitX=0.5;exitY=1;exitDx=0;exitDy=0;" edge="1" parent="1" source="LbimwJBYZa8Vmd8NOQpc-20" target="LbimwJBYZa8Vmd8NOQpc-15">
          <mxGeometry relative="1" as="geometry">
            <mxPoint x="760" y="340" as="sourcePoint" />
            <mxPoint x="830" y="600" as="targetPoint" />
          </mxGeometry>
        </mxCell>
        <mxCell id="LbimwJBYZa8Vmd8NOQpc-31" style="edgeStyle=entityRelationEdgeStyle;rounded=0;orthogonalLoop=1;jettySize=auto;html=1;endArrow=ERmany;endFill=0;exitX=0;exitY=0.5;exitDx=0;exitDy=0;entryX=1;entryY=0.5;entryDx=0;entryDy=0;" edge="1" parent="1" source="LbimwJBYZa8Vmd8NOQpc-25" target="LbimwJBYZa8Vmd8NOQpc-22">
          <mxGeometry relative="1" as="geometry">
            <mxPoint x="1175" y="569" as="sourcePoint" />
            <mxPoint x="1090" y="460" as="targetPoint" />
          </mxGeometry>
        </mxCell>
        <mxCell id="LbimwJBYZa8Vmd8NOQpc-38" value="data" style="swimlane;fontStyle=0;childLayout=stackLayout;horizontal=1;startSize=36;horizontalStack=0;resizeParent=1;resizeParentMax=0;resizeLast=0;collapsible=1;marginBottom=0;align=center;fontSize=14;swimlaneLine=1;glass=0;aspect=fixed;" vertex="1" parent="1">
          <mxGeometry x="70" y="370" width="249.75" height="120" as="geometry">
            <mxRectangle x="380" y="370" width="120" height="30" as="alternateBounds" />
          </mxGeometry>
        </mxCell>
        <mxCell id="LbimwJBYZa8Vmd8NOQpc-39" value="&lt;b&gt;PK&amp;nbsp;&lt;/b&gt;id_daty" style="text;strokeColor=none;fillColor=none;spacingLeft=4;spacingRight=4;overflow=hidden;rotatable=0;points=[[0,0.5],[1,0.5]];portConstraint=eastwest;fontSize=12;whiteSpace=wrap;html=1;" vertex="1" parent="LbimwJBYZa8Vmd8NOQpc-38">
          <mxGeometry y="36" width="249.75" height="30" as="geometry" />
        </mxCell>
        <mxCell id="LbimwJBYZa8Vmd8NOQpc-40" value="&lt;b&gt;FK&lt;/b&gt;&amp;nbsp;id_kwartalu" style="text;strokeColor=none;fillColor=none;spacingLeft=4;spacingRight=4;overflow=hidden;rotatable=0;points=[[0,0.5],[1,0.5]];portConstraint=eastwest;fontSize=12;whiteSpace=wrap;html=1;" vertex="1" parent="LbimwJBYZa8Vmd8NOQpc-38">
          <mxGeometry y="66" width="249.75" height="30" as="geometry" />
        </mxCell>
        <mxCell id="LbimwJBYZa8Vmd8NOQpc-41" value="data DATE" style="text;strokeColor=none;fillColor=none;spacingLeft=4;spacingRight=4;overflow=hidden;rotatable=0;points=[[0,0.5],[1,0.5]];portConstraint=eastwest;fontSize=12;whiteSpace=wrap;html=1;" vertex="1" parent="LbimwJBYZa8Vmd8NOQpc-38">
          <mxGeometry y="96" width="249.75" height="24" as="geometry" />
        </mxCell>
        <mxCell id="LbimwJBYZa8Vmd8NOQpc-43" style="edgeStyle=entityRelationEdgeStyle;rounded=0;orthogonalLoop=1;jettySize=auto;html=1;entryX=0;entryY=0.5;entryDx=0;entryDy=0;endArrow=ERmany;endFill=0;exitX=1;exitY=0.5;exitDx=0;exitDy=0;" edge="1" parent="1" source="LbimwJBYZa8Vmd8NOQpc-40" target="LbimwJBYZa8Vmd8NOQpc-4">
          <mxGeometry relative="1" as="geometry">
            <mxPoint x="590" y="660" as="sourcePoint" />
            <mxPoint x="530" y="660" as="targetPoint" />
          </mxGeometry>
        </mxCell>
        <mxCell id="LbimwJBYZa8Vmd8NOQpc-44" value="kwartal" style="swimlane;fontStyle=0;childLayout=stackLayout;horizontal=1;startSize=36;horizontalStack=0;resizeParent=1;resizeParentMax=0;resizeLast=0;collapsible=1;marginBottom=0;align=center;fontSize=14;swimlaneLine=1;glass=0;aspect=fixed;" vertex="1" parent="1">
          <mxGeometry x="200" y="190" width="249.75" height="120" as="geometry">
            <mxRectangle x="380" y="370" width="120" height="30" as="alternateBounds" />
          </mxGeometry>
        </mxCell>
        <mxCell id="LbimwJBYZa8Vmd8NOQpc-45" value="&lt;b&gt;PK&amp;nbsp;&lt;/b&gt;id_kwartalu" style="text;strokeColor=none;fillColor=none;spacingLeft=4;spacingRight=4;overflow=hidden;rotatable=0;points=[[0,0.5],[1,0.5]];portConstraint=eastwest;fontSize=12;whiteSpace=wrap;html=1;" vertex="1" parent="LbimwJBYZa8Vmd8NOQpc-44">
          <mxGeometry y="36" width="249.75" height="30" as="geometry" />
        </mxCell>
        <mxCell id="LbimwJBYZa8Vmd8NOQpc-46" value="&lt;b&gt;FK&lt;/b&gt;&amp;nbsp;id_roku" style="text;strokeColor=none;fillColor=none;spacingLeft=4;spacingRight=4;overflow=hidden;rotatable=0;points=[[0,0.5],[1,0.5]];portConstraint=eastwest;fontSize=12;whiteSpace=wrap;html=1;" vertex="1" parent="LbimwJBYZa8Vmd8NOQpc-44">
          <mxGeometry y="66" width="249.75" height="30" as="geometry" />
        </mxCell>
        <mxCell id="LbimwJBYZa8Vmd8NOQpc-47" value="kwartal DATE" style="text;strokeColor=none;fillColor=none;spacingLeft=4;spacingRight=4;overflow=hidden;rotatable=0;points=[[0,0.5],[1,0.5]];portConstraint=eastwest;fontSize=12;whiteSpace=wrap;html=1;" vertex="1" parent="LbimwJBYZa8Vmd8NOQpc-44">
          <mxGeometry y="96" width="249.75" height="24" as="geometry" />
        </mxCell>
        <mxCell id="LbimwJBYZa8Vmd8NOQpc-48" style="edgeStyle=entityRelationEdgeStyle;rounded=0;orthogonalLoop=1;jettySize=auto;html=1;entryX=0.5;entryY=0;entryDx=0;entryDy=0;endArrow=ERmany;endFill=0;exitX=0;exitY=0.5;exitDx=0;exitDy=0;" edge="1" parent="1" source="LbimwJBYZa8Vmd8NOQpc-46" target="LbimwJBYZa8Vmd8NOQpc-38">
          <mxGeometry relative="1" as="geometry">
            <mxPoint x="250" y="520" as="sourcePoint" />
            <mxPoint x="310" y="520" as="targetPoint" />
            <Array as="points">
              <mxPoint x="350" y="340" />
              <mxPoint x="470" y="310" />
              <mxPoint x="350" y="330" />
            </Array>
          </mxGeometry>
        </mxCell>
        <mxCell id="LbimwJBYZa8Vmd8NOQpc-49" value="rok" style="swimlane;fontStyle=0;childLayout=stackLayout;horizontal=1;startSize=36;horizontalStack=0;resizeParent=1;resizeParentMax=0;resizeLast=0;collapsible=1;marginBottom=0;align=center;fontSize=14;swimlaneLine=1;glass=0;aspect=fixed;" vertex="1" parent="1">
          <mxGeometry x="50" y="10" width="249.75" height="120" as="geometry">
            <mxRectangle x="380" y="370" width="120" height="30" as="alternateBounds" />
          </mxGeometry>
        </mxCell>
        <mxCell id="LbimwJBYZa8Vmd8NOQpc-50" value="&lt;b&gt;PK&amp;nbsp;&lt;/b&gt;id_roku" style="text;strokeColor=none;fillColor=none;spacingLeft=4;spacingRight=4;overflow=hidden;rotatable=0;points=[[0,0.5],[1,0.5]];portConstraint=eastwest;fontSize=12;whiteSpace=wrap;html=1;" vertex="1" parent="LbimwJBYZa8Vmd8NOQpc-49">
          <mxGeometry y="36" width="249.75" height="30" as="geometry" />
        </mxCell>
        <mxCell id="LbimwJBYZa8Vmd8NOQpc-51" value="&lt;b&gt;FK&lt;/b&gt;&amp;nbsp;id_kwartalu" style="text;strokeColor=none;fillColor=none;spacingLeft=4;spacingRight=4;overflow=hidden;rotatable=0;points=[[0,0.5],[1,0.5]];portConstraint=eastwest;fontSize=12;whiteSpace=wrap;html=1;" vertex="1" parent="LbimwJBYZa8Vmd8NOQpc-49">
          <mxGeometry y="66" width="249.75" height="30" as="geometry" />
        </mxCell>
        <mxCell id="LbimwJBYZa8Vmd8NOQpc-52" value="year DATE" style="text;strokeColor=none;fillColor=none;spacingLeft=4;spacingRight=4;overflow=hidden;rotatable=0;points=[[0,0.5],[1,0.5]];portConstraint=eastwest;fontSize=12;whiteSpace=wrap;html=1;" vertex="1" parent="LbimwJBYZa8Vmd8NOQpc-49">
          <mxGeometry y="96" width="249.75" height="24" as="geometry" />
        </mxCell>
        <mxCell id="LbimwJBYZa8Vmd8NOQpc-53" style="edgeStyle=entityRelationEdgeStyle;rounded=0;orthogonalLoop=1;jettySize=auto;html=1;entryX=0.5;entryY=0;entryDx=0;entryDy=0;endArrow=ERmany;endFill=0;exitX=1;exitY=0.5;exitDx=0;exitDy=0;" edge="1" parent="1" source="LbimwJBYZa8Vmd8NOQpc-51" target="LbimwJBYZa8Vmd8NOQpc-44">
          <mxGeometry relative="1" as="geometry">
            <mxPoint x="455" y="70" as="sourcePoint" />
            <mxPoint x="450" y="169" as="targetPoint" />
            <Array as="points">
              <mxPoint x="605" y="139" />
              <mxPoint x="725" y="109" />
              <mxPoint x="605" y="129" />
            </Array>
          </mxGeometry>
        </mxCell>
      </root>
    </mxGraphModel>
  </diagram>
</mxfile>
